<?xml version="1.0" standalone="no"?>
<!DOCTYPE svg PUBLIC "-//W3C//DTD SVG 20010904//EN"
 "http://www.w3.org/TR/2001/REC-SVG-20010904/DTD/svg10.dtd">
<svg version="1.0" xmlns="http://www.w3.org/2000/svg"
 width="791.000000pt" height="791.000000pt" viewBox="0 0 791.000000 791.000000"
 preserveAspectRatio="xMidYMid meet">
<metadata>
Created by potrace 1.14, written by Peter Selinger 2001-2017
</metadata>
<g transform="translate(0.000000,791.000000) scale(0.100000,-0.100000)"
fill="#000000" stroke="none">
<path d="M3884 6317 c-12 -6 -20 -20 -19 -29 2 -11 -2 -15 -12 -11 -13 5 -14
3 -3 -17 11 -21 10 -22 -6 -16 -18 6 -18 5 0 -9 18 -14 18 -15 2 -15 -16 0
-16 -1 0 -17 15 -16 15 -17 -2 -24 -18 -7 -18 -8 1 -8 15 -1 17 -3 6 -10 -9
-6 -10 -10 -2 -16 9 -5 9 -10 1 -20 -8 -10 -7 -16 7 -24 10 -6 13 -11 7 -11
-10 0 -11 -27 -3 -55 11 -35 -24 -64 -66 -55 -13 3 -54 3 -137 0 -69 -3 -118
-26 -103 -49 3 -6 2 -11 -3 -11 -5 0 -7 -12 -4 -26 4 -21 2 -25 -9 -20 -8 4
-5 0 5 -8 11 -9 14 -16 7 -16 -7 0 -10 -4 -6 -10 3 -5 6 -38 7 -74 1 -49 6
-67 17 -72 9 -4 73 -8 143 -8 70 -1 131 -5 135 -10 12 -12 11 -86 -1 -86 -8 0
-8 -2 0 -8 14 -9 27 -45 14 -37 -6 4 -9 -5 -8 -19 1 -15 6 -26 11 -26 5 0 4
-7 -3 -15 -9 -11 -10 -19 -1 -28 8 -10 7 -17 -2 -27 -10 -10 -9 -11 1 -5 11 6
12 3 3 -13 -10 -18 -8 -52 3 -71 7 -11 213 -13 235 -1 14 7 17 18 14 55 -3 29
0 52 9 63 7 9 8 13 2 9 -16 -9 -16 193 0 209 8 7 58 11 153 10 l141 -1 10 32
c6 19 6 31 1 27 -5 -3 -9 2 -9 11 0 10 5 13 12 9 8 -5 8 -3 2 7 -12 19 -11 92
1 101 6 5 5 8 -2 8 -7 0 -13 7 -13 16 0 8 5 12 10 9 6 -3 10 -1 10 4 0 6 -6
11 -12 11 -9 0 -8 4 2 10 9 6 10 10 3 10 -6 0 -15 9 -18 20 -6 19 -15 20 -140
20 -94 0 -136 4 -141 12 -4 7 -8 72 -8 144 l-1 133 -29 30 c-29 31 -65 44 -50
19 6 -10 4 -10 -7 -2 -20 15 -130 16 -155 1z"/>
<path d="M2517 5919 c-9 -6 -17 -8 -17 -5 0 9 -93 -51 -130 -82 -54 -46 -184
-177 -200 -201 -8 -13 -21 -30 -28 -37 -7 -8 -10 -14 -5 -14 4 0 -2 -7 -13
-15 -12 -8 -27 -28 -34 -45 -7 -16 -16 -30 -19 -30 -4 0 -13 -16 -21 -35 -8
-19 -17 -35 -22 -35 -4 0 -7 -3 -6 -7 1 -5 -2 -20 -6 -36 -5 -17 -4 -32 3 -41
6 -7 8 -15 5 -18 -14 -15 81 -138 107 -138 7 0 10 -3 6 -6 -3 -3 15 -22 41
-42 26 -19 49 -38 52 -42 11 -16 147 -107 178 -119 17 -7 32 -18 32 -23 0 -5
4 -7 9 -3 5 3 12 1 15 -3 7 -11 56 -10 74 1 6 5 12 6 12 3 0 -3 9 2 19 11 11
9 18 20 15 25 -3 4 -1 8 4 8 5 0 23 19 40 43 17 24 43 58 59 75 15 18 37 43
48 57 58 75 120 139 267 276 51 48 47 57 -83 194 -181 190 -221 226 -285 256
-73 35 -94 40 -117 28z"/>
<path d="M5363 5899 c-28 -11 -67 -34 -87 -52 -60 -55 -86 -77 -92 -77 -3 0
-22 -19 -42 -42 -20 -23 -49 -54 -64 -70 -16 -16 -28 -33 -28 -38 0 -5 -6 -13
-13 -17 -21 -13 -91 -104 -94 -122 -1 -9 20 -37 47 -62 28 -26 50 -45 50 -42
0 2 21 -19 48 -47 26 -28 82 -88 125 -132 42 -45 77 -85 77 -89 0 -4 3 -9 8
-11 10 -4 92 -104 92 -112 0 -4 12 -18 26 -31 31 -28 60 -32 90 -10 12 8 24
11 28 8 3 -3 6 -1 6 5 0 7 7 12 15 12 8 0 15 5 15 10 0 6 5 10 10 10 6 0 16 4
23 10 7 5 32 26 57 46 25 19 53 42 63 50 9 8 22 14 29 14 6 0 9 2 6 5 -3 3 16
27 42 53 67 67 123 140 116 150 -3 6 1 15 8 21 12 10 12 16 1 38 -8 15 -12 30
-9 35 3 4 1 8 -4 8 -8 0 -20 28 -20 47 0 3 -4 9 -9 12 -16 12 -64 81 -56 81 4
0 3 4 -2 8 -6 4 -30 32 -55 62 -72 88 -93 111 -134 149 -22 20 -47 43 -55 51
-21 20 -141 83 -141 74 0 -3 -6 -2 -12 4 -9 7 -29 4 -65 -9z"/>
<path d="M3250 5178 c0 -4 -13 -8 -30 -8 -36 0 -149 -37 -171 -56 -8 -8 -20
-14 -25 -14 -5 0 -28 -17 -52 -39 -23 -21 -42 -37 -42 -34 0 2 -13 -8 -28 -24
-42 -42 -161 -233 -146 -233 4 0 -1 -9 -11 -20 -10 -11 -15 -20 -11 -20 4 0 1
-10 -5 -22 -13 -24 -17 -196 -6 -215 4 -7 3 -14 -3 -18 -7 -4 -7 -13 0 -26 6
-11 8 -24 5 -29 -3 -5 -1 -11 5 -15 6 -4 8 -10 5 -15 -3 -4 10 -44 29 -89 18
-44 31 -82 28 -85 -3 -4 -1 -6 5 -6 9 0 17 -18 23 -50 1 -3 9 -13 17 -22 9
-10 13 -18 8 -18 -4 0 -2 -7 5 -15 7 -8 10 -15 6 -15 -3 0 3 -10 13 -22 51
-59 65 -78 89 -114 4 -6 28 -27 54 -46 26 -20 44 -39 41 -42 -4 -3 -1 -6 6 -6
10 0 79 -48 101 -70 25 -25 144 -70 188 -70 35 0 28 36 -10 57 -18 9 -36 16
-40 15 -5 -1 -8 2 -8 7 0 9 -60 37 -72 33 -5 -1 -8 3 -8 8 0 6 -6 10 -13 10
-15 0 -85 71 -89 91 -2 7 -19 26 -38 43 -56 50 -111 125 -140 194 -5 12 -14
22 -19 22 -5 0 -12 14 -16 30 -4 17 -11 30 -17 30 -6 0 -9 3 -5 6 3 4 0 19 -9
35 -8 16 -14 30 -13 31 2 5 -14 63 -20 73 -3 6 -6 17 -6 25 0 8 -3 20 -6 25
-12 23 -10 146 3 162 11 14 11 16 -2 8 -13 -8 -13 -7 -1 8 7 9 11 17 8 17 -4
0 0 18 8 40 8 22 12 40 8 40 -3 0 0 7 7 15 7 8 10 15 6 15 -9 0 25 52 44 67 8
7 11 13 7 13 -5 0 -2 7 5 15 7 7 24 28 38 46 33 43 121 129 131 129 5 0 32 11
61 24 112 50 206 54 342 14 90 -27 213 -79 226 -96 3 -4 17 -13 33 -21 36 -19
147 -123 147 -139 0 -6 5 -12 10 -12 6 0 10 -8 10 -17 0 -9 3 -14 6 -10 3 3
20 -8 36 -24 17 -16 39 -29 49 -29 17 0 103 79 95 88 -7 6 135 142 179 171 51
35 190 97 235 106 49 10 240 13 240 4 0 -4 8 -8 18 -7 37 0 115 -31 187 -75
30 -18 95 -79 95 -89 0 -8 8 -19 36 -51 10 -12 26 -45 52 -109 6 -15 9 -35 6
-43 -4 -8 -1 -15 5 -15 6 0 11 -10 11 -22 0 -13 0 -31 0 -40 0 -10 0 -24 0
-30 0 -7 1 -30 3 -50 2 -21 0 -38 -5 -38 -4 0 -3 -11 2 -25 5 -14 6 -25 2 -25
-4 0 -8 -8 -9 -17 0 -10 -4 -29 -7 -43 -3 -14 -9 -40 -12 -57 -3 -18 -11 -33
-16 -33 -6 0 -8 -6 -5 -14 3 -7 -1 -23 -8 -34 -8 -10 -11 -22 -8 -26 3 -3 1
-6 -5 -6 -7 0 -12 -9 -12 -20 0 -11 -5 -20 -12 -20 -6 0 -9 -3 -5 -6 3 -4 1
-12 -6 -20 -29 -33 -37 -44 -31 -44 12 0 -89 -114 -173 -195 -45 -45 -105 -92
-133 -105 -27 -14 -50 -28 -50 -32 0 -5 -7 -8 -15 -8 -9 0 -33 -9 -55 -20 -29
-15 -38 -25 -33 -36 5 -14 16 -15 62 -10 117 14 269 110 379 240 12 14 23 31
25 37 1 6 18 29 38 51 20 21 42 51 50 66 7 15 24 40 36 55 13 16 21 33 17 38
-3 5 0 9 5 9 6 0 11 8 11 18 0 10 5 23 12 30 7 7 8 12 4 12 -5 0 -3 6 3 14 12
15 22 61 24 121 1 22 6 43 11 46 11 9 14 183 2 211 -5 13 -10 34 -12 48 -7 59
-15 94 -23 104 -5 6 -9 14 -8 17 3 8 -64 112 -77 121 -6 4 -8 8 -3 8 7 0 -56
63 -110 109 -71 59 -225 102 -368 102 -106 -1 -275 -39 -275 -62 0 -5 -3 -8
-7 -8 -5 1 -11 0 -15 -1 -5 -1 -11 -3 -15 -5 -20 -5 -49 -19 -53 -26 -3 -4
-12 -9 -20 -11 -8 -2 -21 -7 -28 -13 -15 -10 -139 -134 -158 -157 -22 -27 -46
-68 -40 -68 4 0 -2 -10 -13 -22 -19 -19 -23 -20 -46 -8 -13 7 -22 17 -19 21 3
5 -42 55 -99 111 -114 113 -131 128 -146 128 -5 0 -11 4 -13 8 -6 15 -133 70
-201 87 -78 19 -247 35 -247 23z"/>
<path d="M4330 4616 c-54 -17 -111 -51 -157 -94 -24 -22 -43 -38 -43 -36 0 2
-22 -21 -50 -51 -27 -30 -50 -61 -50 -69 0 -21 -37 -26 -54 -7 -9 10 -16 23
-16 30 0 17 -126 141 -180 178 -91 61 -178 68 -241 20 -45 -34 -66 -60 -61
-75 2 -7 -2 -12 -8 -12 -18 0 -8 -100 15 -155 5 -11 14 -25 19 -32 6 -6 22
-26 36 -44 14 -18 40 -46 58 -63 71 -65 152 -145 152 -150 0 -3 18 -24 40 -46
22 -22 40 -47 40 -55 0 -8 5 -15 11 -15 5 0 7 -4 4 -10 -3 -5 -2 -10 3 -10 5
0 15 -13 22 -30 7 -16 17 -30 22 -30 5 0 7 -4 4 -8 -3 -5 6 -26 18 -49 22 -38
42 -107 37 -127 -4 -17 30 -76 44 -76 20 0 44 27 51 58 4 15 11 33 17 40 5 6
6 12 1 12 -4 0 -3 5 4 12 7 7 12 20 12 30 0 10 5 18 11 18 5 0 8 4 5 9 -3 4 8
29 24 55 17 26 30 51 30 56 0 6 4 10 9 10 5 0 12 8 15 18 3 9 19 32 35 50 17
17 27 32 24 32 -3 0 4 9 17 20 13 11 20 20 16 20 -3 0 10 16 30 35 19 19 32
35 28 35 -4 0 13 20 38 45 25 25 43 45 40 45 -3 0 3 9 15 19 11 11 30 35 42
55 13 20 27 36 32 36 6 0 7 5 4 10 -4 6 -2 17 4 24 6 7 13 23 15 37 3 13 5 24
6 24 1 0 3 21 5 48 2 26 -1 47 -5 47 -5 0 -10 12 -12 27 -2 18 -16 36 -43 55
-54 38 -92 47 -135 34z"/>
<path d="M1874 4564 c-5 -2 -34 -5 -64 -8 -69 -6 -73 -7 -142 -35 -50 -20 -62
-32 -67 -66 0 -3 -7 -18 -14 -33 -8 -15 -13 -53 -13 -85 1 -31 -1 -57 -4 -57
-3 0 -5 -37 -4 -82 1 -47 -4 -89 -10 -97 -8 -11 -8 -13 1 -8 8 5 11 -2 11 -21
-1 -16 2 -34 6 -41 4 -6 2 -11 -4 -11 -6 0 -8 -5 -4 -12 5 -7 8 -45 9 -85 0
-39 4 -75 8 -79 4 -4 7 -20 7 -36 0 -15 5 -28 10 -28 6 0 9 -5 8 -11 -6 -24
58 -49 133 -53 41 -2 74 -5 74 -6 0 -8 528 5 542 13 10 6 10 133 0 143 -4 4
-2 13 4 21 9 9 8 13 0 13 -7 0 -11 14 -11 33 1 17 1 129 0 248 0 118 3 226 8
240 7 19 9 101 3 131 0 4 -65 7 -143 8 -79 1 -186 3 -239 4 -53 1 -100 1 -105
0z"/>
<path d="M5887 4564 c-1 -2 -69 -4 -149 -5 -98 0 -150 -5 -156 -12 -10 -14 -7
-67 5 -112 5 -16 8 -58 8 -92 -1 -35 3 -63 8 -63 5 0 4 -6 -2 -13 -6 -8 -8
-17 -4 -21 12 -11 13 -45 3 -51 -6 -4 -7 -12 -3 -18 11 -18 12 -36 2 -43 -5
-3 -6 -11 -2 -17 12 -19 12 -37 1 -37 -7 0 -6 -5 1 -14 7 -8 8 -17 3 -20 -5
-3 -8 -47 -8 -98 1 -51 -4 -112 -11 -136 -7 -23 -10 -49 -7 -57 4 -9 0 -15 -7
-15 -8 -1 -3 -7 10 -14 12 -7 35 -12 50 -11 14 1 29 -3 33 -9 5 -8 8 -7 8 1 0
8 19 10 68 6 125 -9 467 -3 488 9 5 3 20 8 34 11 35 9 78 48 84 78 15 67 19
118 20 269 2 104 -2 170 -8 179 -13 17 -12 21 6 32 7 5 8 9 2 9 -6 0 -11 23
-13 52 -1 28 -5 57 -9 62 -3 6 -8 20 -9 31 -3 22 -71 87 -84 80 -4 -3 -10 -1
-14 5 -4 6 -11 8 -16 5 -5 -4 -9 -2 -9 3 0 11 -5 12 -135 17 -60 3 -127 6
-147 8 -21 2 -39 3 -41 1z"/>
<path d="M3575 3465 c-16 -7 -26 -14 -21 -14 5 -1 -1 -10 -14 -21 -13 -11 -20
-23 -17 -26 3 -4 2 -15 -3 -24 -12 -22 9 -77 37 -103 23 -20 81 -28 108 -14
22 11 60 48 60 58 0 4 3 11 8 15 11 11 8 54 -4 54 -5 0 -8 4 -5 8 6 11 -32 55
-61 70 -28 15 -51 14 -88 -3z"/>
<path d="M3150 3458 c0 -2 -4 -18 -9 -36 -6 -20 -6 -30 0 -27 5 4 9 -1 9 -9 0
-8 -5 -18 -10 -21 -7 -4 -8 -11 -2 -18 14 -17 12 -498 -1 -490 -6 4 -7 1 -2
-7 11 -18 14 -120 3 -126 -4 -3 -8 -11 -8 -17 0 -9 2 -9 8 1 5 6 9 -50 10
-125 2 -75 7 -142 13 -149 5 -7 30 -11 54 -10 25 0 45 -3 45 -9 0 -7 3 -7 8 0
4 6 16 10 27 9 26 0 47 15 38 30 -4 6 -8 234 -8 506 l-1 495 -87 3 c-48 1 -87
1 -87 0z"/>
<path d="M5050 3449 c-25 -6 -52 -13 -60 -16 -8 -4 -17 -7 -20 -7 -31 -6 -133
-71 -172 -111 -46 -46 -113 -133 -112 -145 2 -13 -9 -40 -15 -40 -4 0 -7 -10
-6 -22 1 -13 -1 -25 -6 -28 -4 -3 -8 -23 -10 -45 -1 -22 -5 -44 -8 -49 -8 -16
-8 -77 1 -82 4 -3 8 -24 8 -48 0 -23 3 -46 7 -50 4 -3 8 -17 10 -29 13 -90
136 -253 225 -298 139 -71 259 -89 393 -59 33 8 63 13 68 12 4 -1 7 2 7 7 0 5
10 11 23 15 35 9 114 62 132 90 15 23 15 27 2 41 -8 8 -17 18 -19 22 -1 5 -18
20 -36 36 l-34 27 -30 -21 c-48 -35 -164 -65 -240 -63 -51 1 -81 8 -125 30
-61 29 -143 102 -143 127 0 8 -6 20 -14 27 -8 6 -13 17 -10 25 3 7 1 16 -5 20
-6 3 -11 19 -11 34 0 15 -3 31 -7 35 -12 12 -10 89 3 121 6 17 9 35 7 42 -7
19 43 107 83 147 40 40 88 69 98 59 3 -4 6 -1 6 6 0 7 6 11 14 8 8 -3 17 -3
20 1 7 6 20 9 71 16 50 7 128 -11 201 -45 38 -18 76 -34 84 -36 17 -2 92 76
84 88 -3 5 0 9 7 9 8 0 9 3 0 13 -6 8 -9 16 -8 18 2 2 -5 12 -15 22 -10 9 -18
15 -18 12 0 -2 -16 7 -36 20 -85 58 -278 89 -394 64z"/>
<path d="M414 3427 c-7 -7 -8 -22 -3 -39 5 -17 4 -28 -2 -28 -6 0 -7 -5 -3
-12 4 -7 8 -214 9 -460 0 -246 4 -450 8 -454 4 -4 45 -8 91 -9 l84 0 4 38 c2
21 1 40 -3 43 -4 2 -3 19 1 38 4 18 3 41 -2 50 -6 11 -5 16 4 16 8 0 9 3 3 8
-13 8 -13 22 -1 41 6 10 5 12 -3 7 -8 -6 -10 0 -5 21 3 15 6 50 5 76 -2 88
-15 84 261 83 134 -1 248 -5 255 -9 8 -5 11 -65 10 -203 -2 -165 0 -197 13
-203 21 -11 162 -4 169 8 9 14 6 975 -3 989 -9 14 -143 17 -165 3 -12 -7 -14
-48 -15 -204 -1 -108 -4 -199 -8 -202 -4 -4 -122 -8 -262 -9 l-255 -2 -6 24
c-3 13 -1 30 6 38 8 10 8 14 0 14 -7 0 -8 8 -3 23 9 24 8 98 -2 122 -3 8 -1
15 3 15 10 0 9 19 -2 37 -4 6 -3 15 3 18 7 5 8 11 1 19 -11 13 -10 34 2 53 10
16 -8 50 -30 57 -36 10 -148 5 -159 -7z"/>
<path d="M1770 3151 c-8 -5 -18 -7 -22 -4 -5 2 -15 -1 -23 -7 -8 -7 -15 -9
-15 -6 0 4 -13 -2 -29 -13 -15 -11 -31 -18 -35 -14 -3 3 -6 1 -6 -5 0 -7 -4
-12 -10 -12 -14 0 -90 -77 -82 -84 3 -3 0 -6 -7 -6 -14 0 -51 -79 -58 -124 -3
-17 -7 -33 -9 -35 -2 -2 1 -10 7 -18 9 -9 8 -13 0 -13 -8 0 -9 -6 -2 -18 6
-11 6 -24 0 -35 -6 -9 -6 -17 -1 -17 4 0 7 -13 6 -30 -1 -16 3 -30 8 -30 6 0
8 -7 4 -15 -3 -8 -1 -15 4 -15 6 0 10 -9 10 -20 0 -11 4 -20 9 -20 5 0 12 -11
15 -24 14 -55 165 -162 239 -170 13 -1 27 -5 32 -7 12 -6 118 -3 155 5 85 17
119 31 153 64 15 14 27 22 27 18 0 -4 6 -1 14 6 18 17 2 65 -25 73 -10 4 -24
15 -29 26 -11 19 -60 27 -60 10 0 -5 -10 -13 -22 -17 -13 -3 -29 -11 -36 -17
-35 -28 -138 -28 -195 0 -86 43 -148 133 -99 147 9 2 107 5 217 5 285 -1 297
0 290 11 -3 6 -2 10 4 10 12 0 11 41 -2 58 -6 8 -5 12 4 12 9 0 10 3 3 8 -6 4
-10 24 -10 45 1 20 -1 37 -5 37 -4 0 -10 10 -14 23 -4 12 -8 24 -9 27 -16 44
-101 140 -124 140 -5 0 -15 7 -22 15 -6 8 -15 14 -18 13 -4 -1 -20 5 -37 12
-38 16 -175 24 -195 11z m147 -152 c41 -23 90 -73 99 -103 4 -13 0 -24 -12
-33 -17 -12 -45 -14 -234 -14 -118 0 -109 -4 -100 36 24 107 153 166 247 114z"/>
<path d="M2531 3149 c-24 -5 -49 -13 -56 -19 -7 -6 -17 -10 -21 -8 -12 3 -55
-21 -75 -41 -18 -19 -15 -72 6 -84 8 -4 21 -14 29 -23 18 -18 53 -15 88 8 46
30 105 41 159 28 27 -7 49 -16 49 -22 0 -5 4 -6 10 -3 5 3 15 -5 22 -19 6 -14
16 -26 21 -26 6 0 7 -3 4 -6 -3 -4 -2 -15 3 -24 7 -12 6 -21 -3 -28 -16 -12
-66 -21 -72 -12 -2 3 -19 5 -37 4 -18 -2 -59 -5 -91 -8 -31 -2 -74 -10 -95
-17 -72 -24 -161 -106 -154 -141 1 -5 -2 -8 -7 -8 -16 0 -9 -142 8 -170 32
-51 82 -93 126 -106 6 -1 24 -7 40 -12 42 -13 135 -6 179 12 20 8 47 27 59 42
19 21 27 25 41 17 10 -5 18 -14 18 -19 1 -35 40 -43 158 -35 13 1 15 37 15
258 0 188 -3 261 -12 271 -7 7 -10 19 -7 27 4 8 1 15 -6 15 -7 0 -10 7 -6 16
3 8 2 13 -3 10 -4 -3 -14 6 -21 19 -7 14 -19 25 -26 25 -7 0 -17 6 -21 13 -4
7 -34 25 -65 40 -62 30 -175 42 -257 26z m235 -414 c7 -9 10 -29 7 -43 -3 -15
-6 -33 -6 -39 0 -7 -3 -13 -7 -13 -3 0 -14 -14 -23 -30 -10 -17 -35 -37 -55
-46 -42 -18 -110 -25 -118 -12 -3 4 -9 6 -13 4 -11 -7 -59 38 -63 59 -1 11 -7
23 -11 26 -5 4 -3 17 5 29 15 27 48 63 48 54 0 -4 6 -1 14 5 16 14 115 28 170
26 24 -2 44 -9 52 -20z"/>
<path d="M5853 3150 c-13 -5 -23 -7 -23 -3 0 3 -7 0 -15 -7 -8 -7 -15 -10 -15
-6 0 3 -24 -7 -54 -23 -30 -17 -56 -28 -59 -25 -2 3 -8 -7 -11 -21 -8 -30 1
-65 15 -65 6 0 8 -3 5 -8 -2 -4 8 -15 24 -24 27 -16 31 -15 96 18 74 37 124
43 177 20 54 -23 83 -57 93 -108 5 -24 -25 -31 -146 -33 -90 -2 -137 -7 -147
-15 -2 -2 -6 -3 -10 -4 -22 -4 -83 -38 -83 -46 0 -6 -4 -9 -9 -7 -12 3 -51
-42 -51 -60 0 -7 -5 -13 -11 -13 -5 0 -8 -4 -4 -9 3 -5 1 -12 -5 -16 -6 -4 -8
-11 -5 -16 4 -5 2 -9 -3 -9 -5 0 -7 -13 -4 -30 2 -16 8 -30 12 -30 4 0 6 -13
4 -28 -2 -19 5 -37 21 -57 14 -15 25 -31 25 -34 0 -3 17 -17 38 -31 20 -14 39
-28 42 -31 13 -15 153 -27 197 -16 33 9 76 33 97 56 19 21 53 30 41 11 -3 -6
1 -13 9 -16 9 -3 14 -10 11 -14 -8 -13 27 -23 82 -23 88 1 83 -9 79 176 -2 91
-6 169 -10 176 -4 6 -2 19 3 29 7 13 7 22 -1 30 -9 9 -8 12 3 12 12 0 12 2 -1
10 -11 7 -11 10 -2 10 7 0 10 4 7 10 -3 5 -8 27 -9 47 -6 68 -22 110 -55 143
-24 25 -102 68 -136 75 -51 11 -189 14 -212 5z m209 -409 c4 -4 9 -15 11 -26
1 -11 6 -26 10 -32 5 -8 4 -13 -2 -13 -6 0 -11 -11 -11 -25 0 -27 -27 -65 -47
-65 -7 0 -13 -4 -13 -10 0 -5 -9 -10 -19 -10 -11 0 -22 -4 -25 -8 -7 -11 -75
-7 -112 7 -34 13 -57 50 -59 94 -2 39 44 84 92 92 21 4 43 8 48 10 15 5 119
-7 127 -14z"/>
<path d="M6783 3153 c-13 -2 -23 -9 -23 -15 0 -6 -3 -8 -6 -5 -7 7 -60 -28
-84 -55 -18 -21 -54 -28 -56 -10 -1 6 -2 25 -3 40 l-1 28 -80 2 c-59 2 -80 -1
-82 -10 -1 -7 -2 -164 -2 -348 -1 -279 1 -337 13 -346 14 -11 113 -11 148 0
19 6 20 16 20 214 0 140 4 215 12 230 6 12 9 22 7 22 -3 0 7 13 22 29 15 16
29 28 32 28 3 -1 14 4 25 10 11 6 44 10 72 9 61 -2 64 3 68 82 2 30 6 56 9 59
3 4 -1 15 -11 25 -16 17 -34 20 -80 11z"/>
<path d="M7207 3153 c-4 -3 -19 -8 -34 -9 -15 -2 -29 -8 -31 -14 -2 -5 -8 -8
-13 -4 -5 3 -9 0 -9 -6 0 -7 -6 -10 -12 -7 -7 2 -23 -7 -35 -20 -13 -13 -23
-22 -23 -19 0 3 -12 -7 -27 -22 -15 -15 -27 -30 -25 -34 1 -5 -2 -8 -7 -8 -16
0 -58 -85 -54 -109 2 -12 -1 -20 -6 -17 -6 4 -8 -34 -7 -91 3 -102 9 -140 25
-156 5 -5 7 -16 4 -23 -3 -8 0 -14 6 -14 6 0 11 -7 11 -15 0 -7 8 -19 18 -24
9 -6 13 -11 9 -11 -5 0 13 -19 40 -42 47 -40 125 -81 180 -94 53 -12 177 -6
215 10 9 4 24 9 33 10 9 1 40 20 69 41 65 47 67 67 14 114 l-39 34 -66 -33
c-55 -28 -77 -34 -128 -33 -71 0 -98 14 -165 83 -46 46 -53 75 -22 84 9 2 119
4 243 4 124 0 234 2 245 6 18 5 19 14 17 91 -2 53 -9 97 -18 115 -9 17 -13 35
-10 40 3 6 2 10 -3 10 -5 0 -15 11 -22 25 -15 28 -106 102 -121 98 -5 -2 -9 1
-9 6 0 24 -222 56 -243 34z m137 -144 c33 -13 94 -59 79 -59 -4 0 -1 -6 8 -13
21 -16 29 -60 12 -75 -7 -7 -13 -10 -13 -7 0 3 -8 1 -18 -4 -10 -5 -24 -6 -31
-2 -7 5 -30 5 -52 1 -21 -4 -39 -4 -39 0 0 9 -124 5 -139 -4 -14 -9 -50 11
-47 26 7 44 88 144 107 133 4 -3 10 -2 13 3 8 13 87 14 120 1z"/>
<path d="M3538 3131 c-11 -13 -13 -77 -13 -341 0 -179 4 -334 8 -345 7 -21 17
-22 153 -16 20 1 21 6 23 149 1 81 2 166 4 190 1 23 -2 42 -7 42 -5 0 -3 6 3
13 6 8 8 16 5 19 -3 4 -6 72 -6 152 0 80 -3 147 -6 147 -4 1 -39 3 -78 4 -56
2 -75 -1 -86 -14z"/>
<path d="M3883 3140 c-24 -7 -23 -24 5 -48 12 -11 22 -24 22 -31 0 -6 5 -11
10 -11 6 0 9 -3 8 -7 -3 -8 20 -43 59 -91 13 -15 23 -31 23 -36 0 -5 8 -16 18
-25 9 -9 29 -34 44 -56 26 -37 27 -40 11 -65 -9 -14 -29 -37 -44 -52 -16 -16
-26 -28 -23 -28 6 0 -40 -62 -96 -127 -8 -10 -15 -21 -15 -25 0 -5 -17 -26
-37 -48 -42 -44 -47 -59 -20 -61 19 -1 141 -1 159 0 17 1 64 47 56 54 -3 4 0
7 7 7 7 0 11 3 8 6 -4 3 8 19 24 35 17 16 28 29 25 29 -3 0 7 15 24 32 16 18
29 35 29 39 0 4 7 10 16 13 17 6 81 -55 105 -101 18 -36 27 -49 64 -87 29 -31
32 -32 110 -30 44 1 86 3 92 3 16 1 -4 51 -20 51 -6 0 -8 3 -4 6 3 4 1 12 -6
19 -7 7 -19 23 -27 35 -8 13 -25 35 -37 50 -13 15 -23 33 -23 39 0 6 -4 11 -8
11 -4 0 -15 12 -24 28 -9 15 -26 38 -37 52 -11 14 -25 30 -29 36 -20 23 -32
54 -23 54 6 0 17 12 25 28 8 15 24 37 36 50 11 12 18 22 15 22 -5 0 25 37 53
66 7 8 11 14 8 14 -3 0 4 12 17 27 31 38 79 83 86 83 4 0 7 9 8 20 2 18 -15
25 -48 22 -3 -1 -41 -2 -85 -3 -52 -1 -84 -6 -92 -15 -7 -8 -10 -14 -7 -14 3
0 1 -6 -5 -12 -37 -44 -71 -94 -82 -119 -7 -16 -21 -32 -30 -35 -17 -5 -58 27
-58 46 0 6 -5 10 -12 10 -6 0 -9 3 -5 6 3 4 1 12 -6 20 -19 21 -30 36 -57 76
-14 21 -34 38 -45 39 -63 4 -146 3 -162 -1z"/>
<path d="M3628 2266 c-11 -10 -14 -59 -13 -232 2 -230 7 -262 47 -288 20 -13
92 -29 138 -31 8 0 20 -3 25 -6 16 -9 364 1 385 12 3 1 16 3 30 4 14 2 28 4
33 5 4 1 10 3 15 5 51 14 61 18 56 26 -3 5 -2 15 3 22 4 6 8 100 9 207 1 107
4 211 8 230 6 31 4 36 -17 46 -18 8 -162 12 -162 4 0 -1 -38 -4 -85 -7 -166
-9 -426 -3 -448 11 -6 3 -17 0 -24 -8z"/>
</g>
</svg>
